<svg width="48" height="48" viewBox="0 0 48 48" fill="none" xmlns="http://www.w3.org/2000/svg">
<mask id="mask0_794_517" style="mask-type:alpha" maskUnits="userSpaceOnUse" x="0" y="0" width="48" height="48">
<circle cx="24" cy="24" r="23.5" fill="#D9D9D9" stroke="black"/>
</mask>
<g mask="url(#mask0_794_517)">
<circle cx="24" cy="24" r="24" fill="#0099FF"/>
<path d="M12.5241 40.6913H10.9282C10.7882 40.69 10.6544 40.6333 10.5562 40.5334C10.4581 40.4336 10.4036 40.2989 10.4046 40.1589V40.1479C10.4039 40.008 10.4585 39.8734 10.5566 39.7735C10.6547 39.6737 10.7882 39.6166 10.9282 39.6148H12.5241C12.6636 39.6172 12.7966 39.6745 12.8941 39.7743C12.9916 39.8741 13.0458 40.0084 13.0449 40.1479V40.1589C13.0463 40.2985 12.9923 40.433 12.8947 40.5329C12.797 40.6327 12.6637 40.6897 12.5241 40.6913ZM27.6483 39.2891H15.1486C15.0089 39.2873 14.8756 39.2301 14.778 39.1302C14.6803 39.0303 14.6263 38.8957 14.6278 38.756V38.7416C14.6263 38.602 14.6804 38.4674 14.778 38.3676C14.8757 38.2678 15.0089 38.2108 15.1486 38.2092H27.6483C27.7881 38.2106 27.9217 38.2675 28.0196 38.3673C28.1175 38.4672 28.1717 38.6018 28.1705 38.7416V38.7525C28.1715 38.8221 28.1589 38.8912 28.1332 38.9558C28.1075 39.0205 28.0693 39.0794 28.0208 39.1293C27.9723 39.1791 27.9144 39.2189 27.8505 39.2463C27.7866 39.2737 27.7179 39.2883 27.6483 39.2891ZM13.8004 36.4956H4.08396L3.42222 36.4921L2.0535 34.3426H13.8004C15.0187 34.3412 16.212 33.9969 17.2437 33.3491C18.2755 32.7012 19.104 31.776 19.6345 30.6793L20.4441 29.0423H10.5395C10.2598 29.0391 9.99287 28.9251 9.79711 28.7254C9.60136 28.5256 9.49277 28.2565 9.49514 27.9768V27.9556C9.49277 27.6759 9.60136 27.4067 9.79711 27.207C9.99287 27.0073 10.2598 26.8933 10.5395 26.8901H23.2992C24.5176 26.8888 25.7109 26.5446 26.7427 25.8967C27.7745 25.2488 28.603 24.3235 29.1333 23.2267L29.9429 21.5898H14.235C13.9553 21.5865 13.6884 21.4725 13.4926 21.2728C13.2969 21.0731 13.1883 20.8039 13.1907 20.5242V20.5023C13.1881 20.2226 13.2966 19.9532 13.4924 19.7533C13.6882 19.5535 13.9552 19.4394 14.235 19.4361H32.7994C34.0177 19.4347 35.211 19.0904 36.2427 18.4426C37.2745 17.7947 38.103 16.8695 38.6335 15.7728L39.4431 14.1372H1.36914L2.73786 11.9836H41.2888C41.4558 11.9845 41.6197 12.0284 41.7649 12.111C41.91 12.1935 42.0315 12.312 42.1176 12.4551C42.2054 12.5995 42.2551 12.7639 42.2619 12.9329C42.2687 13.1018 42.2325 13.2697 42.1566 13.4207L40.5141 16.7405C39.8123 18.1916 38.7162 19.4158 37.3511 20.273C35.986 21.1302 34.4072 21.5859 32.7953 21.5877H32.3026L31.014 24.1944C30.312 25.6453 29.2158 26.8693 27.8507 27.7263C26.4857 28.5832 24.9069 29.0386 23.2951 29.0403H22.8038L21.5213 31.6346H29.5843C29.7244 31.6361 29.8582 31.693 29.9563 31.793C30.0545 31.8929 30.109 32.0277 30.1079 32.1677V32.1787C30.109 32.3187 30.0544 32.4534 29.9563 32.5532C29.8581 32.6531 29.7243 32.7099 29.5843 32.7111H20.8972C20.1123 33.8726 19.0554 34.8245 17.8185 35.4841C16.5816 36.1437 15.2022 36.4909 13.8004 36.4956ZM25.715 34.8908H22.0099C21.87 34.8891 21.7365 34.8321 21.6386 34.7322C21.5407 34.6322 21.4865 34.4975 21.4878 34.3577V34.3481C21.4865 34.2082 21.5407 34.0735 21.6386 33.9736C21.7365 33.8736 21.87 33.8166 22.0099 33.815H25.715C25.8549 33.8166 25.9884 33.8736 26.0863 33.9736C26.1842 34.0735 26.2384 34.2082 26.2372 34.3481V34.3577C26.2384 34.4975 26.1842 34.6322 26.0863 34.7322C25.9884 34.8321 25.8549 34.8891 25.715 34.8908ZM39.259 31.1583H26.7586C26.6188 31.1567 26.4852 31.0997 26.3873 30.9997C26.2895 30.8998 26.2352 30.7651 26.2365 30.6252V30.6156C26.2352 30.4758 26.2895 30.3411 26.3873 30.2411C26.4852 30.1412 26.6188 30.0842 26.7586 30.0825H39.259C39.3991 30.084 39.5329 30.1409 39.631 30.2409C39.7292 30.3408 39.7837 30.4756 39.7826 30.6156V30.6252C39.7837 30.7653 39.7292 30.9001 39.631 31C39.5329 31.1 39.3991 31.1569 39.259 31.1583Z" fill="white"/>
</g>
</svg>
