<svg width="38" height="36" viewBox="0 0 38 36" fill="none" xmlns="http://www.w3.org/2000/svg">
<path d="M23.0989 28.6971C22.7746 28.6969 22.4517 28.6535 22.1389 28.5681L19.9469 27.9681C21.3468 27.8167 22.7032 27.391 23.9386 26.7153C25.174 26.0396 26.2642 25.1272 27.1469 24.0301L26.5309 26.1681C26.3087 26.9037 25.8542 27.5476 25.2356 28.0035C24.6169 28.4593 23.8673 28.7027 23.0989 28.6971V28.6971ZM18.7649 27.2381C16.2088 27.2699 13.7444 26.2867 11.9121 24.5041C10.0799 22.7215 9.02934 20.2851 8.99088 17.7291C9.02908 15.1729 10.0795 12.7362 11.9118 10.9534C13.7441 9.17059 16.2086 8.18726 18.7649 8.21905C21.3212 8.18726 23.7857 9.17059 25.618 10.9534C27.4503 12.7362 28.5007 15.1729 28.5389 17.7291C28.5004 20.2851 27.4499 22.7215 25.6176 24.5041C23.7854 26.2867 21.321 27.2699 18.7649 27.2381V27.2381ZM21.1099 19.7861C20.4958 19.7813 19.897 19.9777 19.405 20.3451C18.913 20.7125 18.5547 21.2309 18.3849 21.8211C18.288 22.1692 18.263 22.5335 18.3115 22.8916C18.36 23.2497 18.4809 23.5942 18.6669 23.9041C19.0458 24.5403 19.6614 25.0006 20.3789 25.1841C20.6176 25.2463 20.8632 25.2779 21.1099 25.2781C21.724 25.2828 22.3227 25.0865 22.8147 24.719C23.3068 24.3516 23.6651 23.8332 23.8349 23.2431C23.9318 22.8949 23.9568 22.5307 23.9083 22.1725C23.8598 21.8144 23.7389 21.4699 23.5529 21.1601C23.3653 20.8448 23.1175 20.5696 22.8236 20.3502C22.5297 20.1307 22.1954 19.9713 21.8399 19.8811C21.6016 19.8185 21.3563 19.7866 21.1099 19.7861V19.7861ZM14.2639 18.0011C13.6498 17.9965 13.0512 18.1929 12.5592 18.5603C12.0672 18.9277 11.7089 19.446 11.5389 20.0361C11.4422 20.3842 11.4173 20.7484 11.4657 21.1065C11.5142 21.4646 11.6351 21.8091 11.8209 22.1191C12.0084 22.4343 12.2562 22.7095 12.5501 22.929C12.844 23.1485 13.1783 23.3078 13.5339 23.3981C13.7722 23.4603 14.0175 23.4919 14.2639 23.4921C14.8778 23.4971 15.4766 23.3013 15.9689 22.9344C16.4612 22.5676 16.8201 22.0498 16.9909 21.4601C17.0835 21.1079 17.1051 20.7408 17.0544 20.3803C17.0037 20.0197 16.8817 19.6728 16.6955 19.3599C16.5094 19.0469 16.2628 18.7742 15.9701 18.5575C15.6774 18.3409 15.3445 18.1847 14.9909 18.0981C14.7536 18.0351 14.5093 18.0025 14.2639 18.0011V18.0011ZM18.7639 16.5011C18.4904 16.4992 18.2238 16.5868 18.0048 16.7505C17.7858 16.9143 17.6264 17.1452 17.5509 17.4081C17.5092 17.565 17.4993 17.7286 17.5216 17.8894C17.5439 18.0501 17.598 18.2049 17.6808 18.3445C17.7635 18.4842 17.8733 18.6059 18.0036 18.7027C18.134 18.7994 18.2823 18.8693 18.4399 18.9081C18.546 18.9357 18.6552 18.9498 18.7649 18.9501C19.0385 18.9523 19.3054 18.865 19.5247 18.7014C19.7441 18.5378 19.9039 18.307 19.9799 18.0441C20.0214 17.8871 20.0312 17.7234 20.0087 17.5627C19.9863 17.4019 19.9321 17.2471 19.8493 17.1075C19.7664 16.9679 19.6566 16.8462 19.5262 16.7494C19.3959 16.6527 19.2475 16.5829 19.0899 16.5441C18.9833 16.5172 18.8738 16.5041 18.7639 16.5051V16.5011ZM23.2639 11.9601C22.6498 11.9555 22.0512 12.1519 21.5592 12.5193C21.0672 12.8867 20.7089 13.405 20.5389 13.9951C20.442 14.3432 20.417 14.7075 20.4655 15.0656C20.514 15.4237 20.6349 15.7682 20.8209 16.0781C21.0083 16.3939 21.2561 16.6698 21.5502 16.8898C21.8443 17.1097 22.1789 17.2696 22.5349 17.3601C22.7736 17.4224 23.0192 17.4539 23.2659 17.4541C23.8799 17.459 24.4786 17.2629 24.9707 16.8956C25.4627 16.5283 25.821 16.0101 25.9909 15.4201C26.0878 15.0719 26.1128 14.7077 26.0643 14.3495C26.0158 13.9914 25.8949 13.6469 25.7089 13.3371C25.328 12.7006 24.7101 12.2414 23.9909 12.0601C23.7541 11.9962 23.5101 11.9626 23.2649 11.9601H23.2639ZM16.4169 10.1791C15.8025 10.1742 15.2034 10.3705 14.7112 10.7382C14.2189 11.1059 13.8606 11.6246 13.6909 12.2151C13.5981 12.5671 13.5764 12.9342 13.6271 13.2947C13.6778 13.6553 13.7997 14.0022 13.9859 14.315C14.1721 14.6279 14.4188 14.9006 14.7115 15.1171C15.0042 15.3336 15.3372 15.4896 15.6909 15.5761C15.9299 15.6384 16.1759 15.67 16.4229 15.6701C17.0367 15.6744 17.6352 15.4779 18.127 15.1105C18.6188 14.7431 18.977 14.2249 19.1469 13.6351C19.2397 13.2829 19.2613 12.9158 19.2107 12.5552C19.1601 12.1945 19.0381 11.8476 18.8519 11.5347C18.6657 11.2217 18.4191 10.9489 18.1263 10.7323C17.8336 10.5157 17.5006 10.3596 17.1469 10.2731C16.9085 10.2108 16.6632 10.1793 16.4169 10.1791V10.1791ZM12.2809 25.8791L10.0889 25.2791C9.64207 25.16 9.2231 24.954 8.85592 24.673C8.48873 24.3919 8.18051 24.0413 7.94888 23.6411C7.71925 23.2476 7.5721 22.8115 7.5164 22.3594C7.4607 21.9072 7.49761 21.4485 7.62488 21.0111L8.23888 18.8781C8.40557 20.2574 8.8498 21.5887 9.54482 22.7917C10.2398 23.9948 11.1712 25.0446 12.2829 25.8781L12.2809 25.8791ZM29.2909 16.5791C29.1227 15.2005 28.6775 13.8702 27.9821 12.6681C27.2866 11.466 26.3552 10.4169 25.2439 9.58405L27.4439 10.1841C27.8881 10.2989 28.305 10.501 28.6703 10.7786C29.0356 11.0563 29.342 11.4039 29.5715 11.8011C29.8011 12.1984 29.9492 12.6374 30.0073 13.0926C30.0654 13.5477 30.0323 14.0099 29.9099 14.4521L29.2909 16.5791ZM10.3909 11.4221L11.0059 9.28905C11.2275 8.55482 11.6806 7.91189 12.2974 7.45614C12.9143 7.00039 13.6619 6.75622 14.4289 6.76005C14.7539 6.76007 15.0774 6.80346 15.3909 6.88905L17.5829 7.48905C14.7593 7.79573 12.1727 9.21023 10.3909 11.4221V11.4221Z" fill="#0099FF"/>
<path d="M18.9996 3.24308e-05C23.155 -0.00261195 27.1833 1.43255 30.401 4.06199C33.6186 6.69142 35.8275 10.3532 36.6526 14.4258C37.4777 18.4985 36.8683 22.7312 34.9279 26.4057C32.9874 30.0801 29.8353 32.9701 26.0066 34.585C21.608 36.4434 16.6513 36.4783 12.2269 34.6821C7.80254 32.8859 4.27294 29.4056 2.41457 25.007C0.556197 20.6084 0.521282 15.6517 2.31751 11.2274C4.11373 6.80301 7.59395 3.2734 11.9926 1.41503C14.2092 0.476724 16.5925 -0.00455091 18.9996 3.24308e-05V3.24308e-05ZM18.9996 35.027C22.3672 35.027 25.6592 34.0284 28.4593 32.1575C31.2593 30.2865 33.4417 27.6273 34.7305 24.516C36.0192 21.4047 36.3564 17.9811 35.6994 14.6782C35.0424 11.3753 33.4207 8.34139 31.0395 5.96013C28.6582 3.57886 25.6243 1.95719 22.3214 1.3002C19.0185 0.643211 15.5949 0.980402 12.4836 2.26914C9.37234 3.55787 6.71309 5.74026 4.84214 8.54034C2.97118 11.3404 1.97257 14.6324 1.97257 18C1.9776 22.5143 3.77312 26.8423 6.96522 30.0344C10.1573 33.2265 14.4853 35.022 18.9996 35.027V35.027Z" fill="#0099FF"/>
</svg>
