<svg width="37" height="36" viewBox="0 0 37 36" fill="none" xmlns="http://www.w3.org/2000/svg">
<path d="M17.9996 3.24308e-05C22.155 -0.00261195 26.1833 1.43255 29.401 4.06199C32.6186 6.69142 34.8275 10.3532 35.6526 14.4258C36.4777 18.4985 35.8683 22.7312 33.9279 26.4057C31.9874 30.0801 28.8353 32.9701 25.0066 34.585C20.608 36.4434 15.6513 36.4783 11.2269 34.6821C6.80254 32.8859 3.27294 29.4056 1.41457 25.007C-0.443803 20.6084 -0.478718 15.6517 1.31751 11.2274C3.11373 6.80301 6.59395 3.2734 10.9926 1.41503C13.2092 0.476724 15.5925 -0.00455091 17.9996 3.24308e-05V3.24308e-05ZM17.9996 35.027C21.3672 35.027 24.6592 34.0284 27.4593 32.1575C30.2593 30.2865 32.4417 27.6273 33.7305 24.516C35.0192 21.4047 35.3564 17.9811 34.6994 14.6782C34.0424 11.3753 32.4207 8.34139 30.0395 5.96013C27.6582 3.57886 24.6243 1.95719 21.3214 1.3002C18.0185 0.643211 14.5949 0.980402 11.4836 2.26914C8.37234 3.55787 5.71309 5.74026 3.84214 8.54034C1.97118 11.3404 0.972569 14.6324 0.972569 18C0.977598 22.5143 2.77312 26.8423 5.96522 30.0344C9.15731 33.2265 13.4853 35.022 17.9996 35.027V35.027Z" fill="#0099FF"/>
<path d="M14.793 26.5845C13.3536 26.6027 11.966 26.0488 10.9347 25.0446C9.90348 24.0403 9.31299 22.6678 9.29297 21.2285L9.29297 14.8015C9.31326 13.3624 9.90385 11.9902 10.9351 10.9861C11.9663 9.9821 13.3538 9.42837 14.793 9.44653H21.398C22.8379 9.4273 24.2266 9.98053 25.2588 10.9846C26.2911 11.9888 26.8824 13.3616 26.903 14.8015V21.2285C26.8827 22.6686 26.2914 24.0417 25.2592 25.0461C24.2269 26.0504 22.8381 26.6038 21.398 26.5845H14.793Z" fill="#0099FF"/>
<path d="M13.6973 18.0166C13.7133 16.8651 14.1857 15.7671 15.0107 14.9637C15.8357 14.1603 16.9458 13.7171 18.0973 13.7316C19.2488 13.7169 20.3591 14.1599 21.1841 14.9634C22.0091 15.7669 22.4815 16.865 22.4973 18.0166C22.4815 19.168 22.0091 20.266 21.184 21.0693C20.359 21.8727 19.2487 22.3155 18.0973 22.3006C16.9459 22.3152 15.8358 21.8723 15.0108 21.0691C14.1858 20.2658 13.7133 19.1679 13.6973 18.0166V18.0166Z" stroke="white" stroke-width="1.5"/>
<path d="M23.5109 13.8916C24.0908 13.8916 24.5609 13.4277 24.5609 12.8556C24.5609 12.2834 24.0908 11.8196 23.5109 11.8196C22.931 11.8196 22.4609 12.2834 22.4609 12.8556C22.4609 13.4277 22.931 13.8916 23.5109 13.8916Z" stroke="white"/>
</svg>
