<svg width="38" height="36" viewBox="0 0 38 36" fill="none" xmlns="http://www.w3.org/2000/svg">
<path d="M18.9996 3.24308e-05C23.155 -0.00261195 27.1833 1.43255 30.401 4.06199C33.6186 6.69142 35.8275 10.3532 36.6526 14.4258C37.4777 18.4985 36.8683 22.7312 34.9279 26.4057C32.9874 30.0801 29.8353 32.9701 26.0066 34.585C21.608 36.4434 16.6513 36.4783 12.2269 34.6821C7.80254 32.8859 4.27294 29.4056 2.41457 25.007C0.556197 20.6084 0.521282 15.6517 2.31751 11.2274C4.11373 6.80301 7.59395 3.2734 11.9926 1.41503C14.2092 0.476724 16.5925 -0.00455091 18.9996 3.24308e-05V3.24308e-05ZM18.9996 35.027C22.3672 35.027 25.6592 34.0284 28.4593 32.1575C31.2593 30.2865 33.4417 27.6273 34.7305 24.516C36.0192 21.4047 36.3564 17.9811 35.6994 14.6782C35.0424 11.3753 33.4207 8.34139 31.0395 5.96013C28.6582 3.57886 25.6243 1.95719 22.3214 1.3002C19.0185 0.643211 15.5949 0.980402 12.4836 2.26914C9.37234 3.55787 6.71309 5.74026 4.84214 8.54034C2.97118 11.3404 1.97257 14.6324 1.97257 18C1.9776 22.5143 3.77312 26.8423 6.96522 30.0344C10.1573 33.2265 14.4853 35.022 18.9996 35.027V35.027Z" fill="#0099FF"/>
<path d="M23.1233 25.278V19.715C23.1233 18.315 22.6453 17.364 21.4503 17.364C21.0712 17.3714 20.7039 17.4972 20.3999 17.7239C20.0959 17.9506 19.8705 18.2667 19.7553 18.628C19.67 18.9002 19.6328 19.1851 19.6453 19.47V25.278H16.3453C16.3453 25.278 16.3903 15.855 16.3453 14.878H19.6453V16.352C19.6383 16.364 19.6303 16.376 19.6233 16.386H19.6443V16.352C19.9316 15.8169 20.3626 15.3725 20.8887 15.069C21.4148 14.7655 22.0152 14.6148 22.6223 14.634C24.7963 14.634 26.4223 16.12 26.4223 19.314V25.278H23.1233ZM11.2143 25.278V14.878H14.5143V25.278H11.2143ZM12.8403 13.46C12.6004 13.4708 12.3608 13.4321 12.1365 13.3462C11.9122 13.2602 11.708 13.129 11.5366 12.9607C11.3653 12.7924 11.2305 12.5905 11.1406 12.3678C11.0508 12.145 11.0078 11.9061 11.0143 11.666C11.0083 11.422 11.0531 11.1794 11.1459 10.9536C11.2386 10.7278 11.3774 10.5238 11.5532 10.3545C11.7291 10.1853 11.9383 10.0544 12.1674 9.97031C12.3966 9.88621 12.6407 9.85069 12.8843 9.86602C13.1263 9.85293 13.3684 9.89016 13.5953 9.97536C13.8222 10.0606 14.0289 10.1919 14.2025 10.361C14.3761 10.5302 14.5127 10.7335 14.6037 10.9581C14.6947 11.1827 14.7382 11.4238 14.7313 11.666C14.7375 11.91 14.6928 12.1526 14.6002 12.3784C14.5075 12.6041 14.3689 12.8082 14.1931 12.9775C14.0173 13.1468 13.8082 13.2776 13.5791 13.3617C13.35 13.4458 13.1059 13.4814 12.8623 13.466L12.8403 13.46Z" fill="#0099FF"/>
</svg>
