<svg width="38" height="36" viewBox="0 0 38 36" fill="none" xmlns="http://www.w3.org/2000/svg">
<path d="M18.9996 3.24308e-05C23.155 -0.00261195 27.1833 1.43255 30.401 4.06199C33.6186 6.69142 35.8275 10.3532 36.6526 14.4258C37.4777 18.4985 36.8683 22.7312 34.9279 26.4057C32.9874 30.0801 29.8353 32.9701 26.0066 34.585C21.608 36.4434 16.6513 36.4783 12.2269 34.6821C7.80254 32.8859 4.27294 29.4056 2.41457 25.007C0.556197 20.6084 0.521282 15.6517 2.31751 11.2274C4.11373 6.80301 7.59395 3.2734 11.9926 1.41503C14.2092 0.476724 16.5925 -0.00455091 18.9996 3.24308e-05V3.24308e-05ZM18.9996 35.027C22.3672 35.027 25.6592 34.0284 28.4593 32.1575C31.2593 30.2865 33.4417 27.6273 34.7305 24.516C36.0192 21.4047 36.3564 17.9811 35.6994 14.6782C35.0424 11.3753 33.4207 8.34139 31.0395 5.96013C28.6582 3.57886 25.6243 1.95719 22.3214 1.3002C19.0185 0.643211 15.5949 0.980402 12.4836 2.26914C9.37234 3.55787 6.71309 5.74026 4.84214 8.54034C2.97118 11.3404 1.97257 14.6324 1.97257 18C1.9776 22.5143 3.77312 26.8423 6.96522 30.0344C10.1573 33.2265 14.4853 35.022 18.9996 35.027V35.027Z" fill="#0099FF"/>
<path d="M10.7999 17.6981L14.7179 19.1581L16.2339 24.0341C16.2563 24.1061 16.2961 24.1716 16.3497 24.2247C16.4033 24.2778 16.4692 24.3169 16.5414 24.3387C16.6137 24.3604 16.6902 24.364 16.7642 24.3493C16.8382 24.3345 16.9075 24.3018 16.9659 24.2541L19.1489 22.4741C19.2603 22.3833 19.3986 22.3319 19.5422 22.3279C19.6858 22.324 19.8267 22.3676 19.9429 22.4521L23.8809 25.3111C23.9433 25.3562 24.016 25.3851 24.0923 25.395C24.1687 25.4049 24.2463 25.3956 24.3182 25.3679C24.39 25.3401 24.4538 25.2949 24.5037 25.2362C24.5536 25.1776 24.588 25.1074 24.6039 25.0321L27.4899 11.1551C27.5067 11.0738 27.5014 10.9896 27.4744 10.9111C27.4474 10.8327 27.3999 10.763 27.3366 10.7093C27.2734 10.6556 27.1969 10.6199 27.1151 10.6059C27.0334 10.592 26.9494 10.6003 26.8719 10.6301L10.7999 16.8321C10.7116 16.8649 10.6354 16.924 10.5816 17.0014C10.5278 17.0788 10.499 17.1708 10.499 17.2651C10.499 17.3593 10.5278 17.4513 10.5816 17.5287C10.6354 17.6061 10.7116 17.6652 10.7999 17.6981V17.6981ZM16.2329 18.3201L23.6439 13.6661C23.672 13.6474 23.7062 13.6402 23.7395 13.6458C23.7727 13.6514 23.8026 13.6694 23.8231 13.6963C23.8436 13.7231 23.8531 13.7567 23.8497 13.7903C23.8463 13.8238 23.8303 13.8549 23.8049 13.8771L17.4879 19.7481C17.3618 19.8361 17.2589 19.9534 17.1882 20.09C17.1175 20.2265 17.081 20.3783 17.0819 20.5321L17.3999 21.7731C17.4229 22.2001 16.9479 22.2731 16.8889 22.0621L15.9889 19.1621C15.9257 19.0148 15.9156 18.8501 15.9602 18.6962C16.0049 18.5422 16.1017 18.4086 16.2339 18.3181L16.2329 18.3201Z" fill="#0099FF"/>
</svg>
