<svg width="37" height="36" viewBox="0 0 37 36" fill="none" xmlns="http://www.w3.org/2000/svg">
<path d="M27.8315 12.384C27.1797 12.6867 26.4847 12.8861 25.7715 12.975C26.5312 12.4956 27.0928 11.7586 27.3535 10.899C26.6541 11.3341 25.8832 11.6422 25.0765 11.809C24.7478 11.4375 24.3441 11.1399 23.8919 10.9358C23.4398 10.7317 22.9496 10.6258 22.4535 10.625C21.4809 10.6476 20.557 11.0553 19.8848 11.7586C19.2126 12.4619 18.8471 13.4033 18.8685 14.376C18.8681 14.6635 18.8993 14.9503 18.9615 15.231C17.5201 15.1474 16.1138 14.754 14.8383 14.0775C13.5628 13.401 12.4482 12.4574 11.5705 11.311C11.2502 11.8879 11.0829 12.5372 11.0845 13.197C11.0807 13.8077 11.2242 14.4102 11.5027 14.9537C11.7812 15.4971 12.1866 15.9655 12.6845 16.319C12.1103 16.3008 11.5497 16.1396 11.0535 15.85C11.0535 15.866 11.0535 15.881 11.0535 15.897C11.0402 16.7469 11.3188 17.5757 11.8427 18.245C12.3666 18.9144 13.1043 19.3838 13.9325 19.575C13.4057 19.7251 12.8506 19.747 12.3135 19.639C12.5268 20.3701 12.9655 21.0151 13.5671 21.482C14.1687 21.9489 14.9024 22.2138 15.6635 22.239C14.9314 22.8469 14.0826 23.2987 13.1695 23.5666C12.2563 23.8345 11.2981 23.9129 10.3535 23.797C11.9778 24.8946 13.8932 25.4814 15.8535 25.482C22.4535 25.482 26.0535 19.767 26.0535 14.811C26.0535 14.6483 26.0502 14.4867 26.0435 14.326C26.7499 13.7898 27.3554 13.1322 27.8315 12.384V12.384Z" fill="#0099FF"/>
<path d="M18.9996 3.24308e-05C23.155 -0.00261195 27.1833 1.43255 30.401 4.06199C33.6186 6.69142 35.8275 10.3532 36.6526 14.4258C37.4777 18.4985 36.8683 22.7312 34.9279 26.4057C32.9874 30.0801 29.8353 32.9701 26.0066 34.585C21.608 36.4434 16.6513 36.4783 12.2269 34.6821C7.80254 32.8859 4.27294 29.4056 2.41457 25.007C0.556197 20.6084 0.521282 15.6517 2.31751 11.2274C4.11373 6.80301 7.59395 3.2734 11.9926 1.41503C14.2092 0.476724 16.5925 -0.00455091 18.9996 3.24308e-05V3.24308e-05ZM18.9996 35.027C22.3672 35.027 25.6592 34.0284 28.4593 32.1575C31.2593 30.2865 33.4417 27.6273 34.7305 24.516C36.0192 21.4047 36.3564 17.9811 35.6994 14.6782C35.0424 11.3753 33.4207 8.34139 31.0395 5.96013C28.6582 3.57886 25.6243 1.95719 22.3214 1.3002C19.0185 0.643211 15.5949 0.980402 12.4836 2.26914C9.37234 3.55787 6.71309 5.74026 4.84214 8.54034C2.97118 11.3404 1.97257 14.6324 1.97257 18C1.9776 22.5143 3.77312 26.8423 6.96522 30.0344C10.1573 33.2265 14.4853 35.022 18.9996 35.027V35.027Z" fill="#0099FF"/>
</svg>
