<svg width="136" height="48" viewBox="0 0 136 48" fill="none" xmlns="http://www.w3.org/2000/svg">
<path d="M90.8002 19.2V23.4C90.8002 25.2 89.4002 26.7999 87.4002 26.7999H83.2002V19.2H90.8002Z" fill="black"/>
<path d="M132 9H102.8V29H126C128.2 29 130 27.2 130 25V32.8H103V39H132C134.2 39 136 37.2 136 35V13.2C136 11 134.2 9 132 9ZM129.8 22.8H109V15.4H130V22.8H129.8Z" fill="black"/>
<path d="M30 15.6001V35.0001C30 37.2001 28.2 39.0001 26 39.0001H23.8V35.0001C23.8 37.2001 22 39.0001 19.8 39.0001H0V32.8001H23.6V15.6001H30Z" fill="black"/>
<path d="M39.4002 9V35C39.4002 37.2 37.6002 39 35.4002 39H33.2002V9H39.4002Z" fill="black"/>
<path d="M99.1996 32.5999V38.7999H70.1996C67.9996 38.7999 66.1996 36.9999 66.1996 34.7999C66.1996 36.9999 64.3996 38.7999 62.1996 38.7999H42.5996V32.5999H66.1996V21.3999H46.7996C44.5996 21.3999 42.7996 19.5999 42.7996 17.3999V15.3999H72.3996V32.7999L99.1996 32.5999Z" fill="black"/>
</svg>
