<svg width="138" height="56" viewBox="0 0 138 56" fill="none" xmlns="http://www.w3.org/2000/svg">
<g clip-path="url(#clip0_361_562)">
<path d="M97.7038 0.0908386C97.8727 -0.013328 98.078 0.011672 98.2684 0.0150053C100.155 0.091672 102.033 0.300005 103.908 0.519172C108.082 1.02334 112.239 1.65667 116.386 2.34751C120.421 3.03001 124.45 3.75501 128.446 4.64417C129.739 4.94584 131.039 5.23334 132.292 5.67751C132.578 5.79584 132.928 5.89251 133.073 6.19751C133.221 6.49167 133.1 6.86667 132.831 7.04417C130.873 8.57501 128.936 10.1308 126.954 11.6292C126.738 11.8033 126.464 11.9742 126.18 11.8692C124.349 11.3225 122.499 10.8467 120.652 10.3633C116.973 9.41751 113.283 8.51 109.567 7.72251C105.635 6.89751 101.669 6.24834 97.6897 5.71C97.347 5.68167 97.0738 5.35251 97.1061 5.00751C97.1334 3.55751 97.169 2.10251 97.3619 0.663339C97.3793 0.432505 97.4935 0.201672 97.7038 0.0908386Z" fill="#00AEEF" stroke="#00AEEF" stroke-width="0.125"/>
<path d="M96.0536 0.183347C96.3739 0.0266808 96.7953 0.297514 96.7779 0.657514C96.6869 2.08001 96.6032 3.50251 96.5229 4.92585C96.537 5.23251 96.2564 5.51085 95.9492 5.46918C94.1024 5.32668 92.2546 5.19085 90.4085 5.03918C90.0004 5.00001 89.8166 4.42168 90.1254 4.15085C90.9235 3.41001 91.8142 2.77835 92.7041 2.15501C93.7795 1.43335 94.8606 0.696681 96.0536 0.183347Z" fill="#0E76BC" stroke="#0E76BC" stroke-width="0.125"/>
<path d="M89.2099 6.21576C89.5054 5.94159 89.9268 5.88826 90.3109 5.85493C91.1487 5.80326 91.9881 5.8691 92.8234 5.93826C94.8334 6.12076 96.8309 6.4116 98.8243 6.7216C102.572 7.31493 106.304 8.00826 110.022 8.76326C113.581 9.49326 117.134 10.2674 120.65 11.1858C122.105 11.5833 123.573 11.9574 124.968 12.5408C125.371 12.7291 125.861 12.9308 126 13.4008C126.148 13.9208 126.187 14.4658 126.245 15.0016C126.419 16.9674 126.486 18.9408 126.552 20.9124C126.687 25.4116 126.737 29.9133 126.758 34.4141C126.767 39.0549 126.741 43.6958 126.605 48.3349C126.54 50.1983 126.483 52.0649 126.294 53.9208C126.226 54.4233 126.194 54.9449 125.99 55.4149C125.79 55.8408 125.287 55.9558 124.864 55.9999H124.499C122.72 55.8358 120.962 55.5041 119.216 55.1408C116.031 54.4716 112.872 53.6858 109.724 52.8641C106.141 51.9208 102.574 50.9141 99.0338 49.8174C96.542 49.0341 94.0494 48.2366 91.6321 47.2416C90.8672 46.9074 90.0799 46.5866 89.4127 46.0733C89.147 45.8799 88.9847 45.5758 88.9483 45.2499C88.7744 44.0916 88.7306 42.9191 88.6676 41.7508C88.4747 37.3649 88.4267 32.9741 88.3945 28.5849C88.3713 23.2224 88.3795 17.8583 88.5344 12.4974C88.5989 10.7441 88.6436 8.98576 88.858 7.24326C88.921 6.88909 88.9359 6.48076 89.2099 6.21576ZM95.3532 15.7433C94.6661 17.0066 95.0519 18.7491 96.2572 19.5491C96.0395 20.8258 95.9526 22.1216 95.9542 23.4158C95.9741 26.5524 96.4849 29.7241 97.7465 32.6074C98.7722 34.9424 100.38 37.0841 102.572 38.4199C103.974 39.2858 105.577 39.7966 107.207 39.9908C108.728 40.1799 110.305 40.1041 111.758 39.5883C112.959 39.1683 114.046 38.4383 114.908 37.5008C115.952 36.3733 116.679 34.9833 117.19 33.5383C118.321 30.2666 118.507 26.7541 118.432 23.3183C119.46 22.8166 120.074 21.6424 119.973 20.5074C119.905 19.4308 119.197 18.3908 118.164 18.0449C117.333 17.7466 116.361 17.9641 115.715 18.5624C114.803 19.3699 114.524 20.7791 115.003 21.8933C115.292 22.6058 115.888 23.1791 116.61 23.4341C116.669 25.8516 116.566 28.2866 116.082 30.6608C115.755 32.2333 115.261 33.7958 114.404 35.1616C113.754 36.2049 112.839 37.1008 111.723 37.6249C110.553 38.1858 109.224 38.3199 107.945 38.2216C106.344 38.1024 104.752 37.6358 103.394 36.7616C102.122 35.9549 101.081 34.8166 100.291 33.5366C98.8268 31.1533 98.1372 28.3674 97.8732 25.5999C97.7051 23.7124 97.7258 21.8008 98.0329 19.9283C99.1637 19.7241 100.047 18.7133 100.19 17.5799C100.417 16.2508 99.6075 14.7741 98.2871 14.4091C97.1496 14.0541 95.8731 14.6899 95.3532 15.7433Z" fill="#ED217C" stroke="#ED217C" stroke-width="0.125"/>
<path d="M133.653 7.55338C133.991 7.37254 134.446 7.57088 134.572 7.92838C134.746 8.37504 134.808 8.85505 134.89 9.32505C135.134 10.9309 135.294 12.5484 135.462 14.1642C135.92 18.7717 136.292 23.3867 136.641 28.0042C136.957 32.305 137.259 36.6075 137.487 40.915C137.563 42.6392 137.677 44.3659 137.623 46.0925C137.653 46.6125 137.255 46.9867 136.946 47.3475C135.96 48.4159 134.873 49.3834 133.788 50.3492C132.366 51.59 130.944 52.8367 129.409 53.9359C128.984 54.2184 128.561 54.5417 128.061 54.6725C127.687 54.77 127.27 54.4825 127.249 54.09C127.503 49.8992 127.513 45.6975 127.57 41.5C127.594 36.8884 127.719 32.2767 127.616 27.6659C127.513 22.8825 127.292 18.1025 126.981 13.3292C126.953 13.1059 127.036 12.8709 127.214 12.7309C128.608 11.5742 130.007 10.4234 131.414 9.28421C132.155 8.70171 132.869 8.07588 133.653 7.55338Z" fill="#FCB040" stroke="#FCB040" stroke-width="0.125"/>
<path d="M95.3535 15.7434C95.8734 14.6901 97.1499 14.0543 98.2874 14.4093C99.6078 14.7743 100.417 16.2509 100.191 17.5801C100.047 18.7134 99.164 19.7243 98.0332 19.9284C97.7261 21.8009 97.7054 23.7126 97.8734 25.6001C98.1375 28.3676 98.8271 31.1534 100.292 33.5368C101.081 34.8168 102.123 35.9551 103.394 36.7618C104.753 37.636 106.344 38.1026 107.945 38.2218C109.225 38.3201 110.553 38.1859 111.723 37.6251C112.839 37.1009 113.754 36.2051 114.404 35.1618C115.261 33.7959 115.755 32.2334 116.082 30.6609C116.566 28.2868 116.669 25.8518 116.611 23.4343C115.888 23.1793 115.292 22.6059 115.003 21.8934C114.524 20.7793 114.803 19.3701 115.715 18.5626C116.361 17.9643 117.333 17.7468 118.164 18.0451C119.197 18.3909 119.905 19.4309 119.973 20.5076C120.074 21.6426 119.46 22.8168 118.432 23.3184C118.507 26.7543 118.321 30.2668 117.19 33.5384C116.679 34.9834 115.953 36.3734 114.909 37.5009C114.046 38.4384 112.959 39.1684 111.759 39.5884C110.305 40.1043 108.728 40.1801 107.207 39.9909C105.577 39.7968 103.975 39.2859 102.572 38.4201C100.38 37.0843 98.7725 34.9426 97.7468 32.6076C96.4852 29.7243 95.9744 26.5526 95.9545 23.4159C95.9529 22.1218 96.0398 20.8259 96.2575 19.5493C95.0522 18.7493 94.6664 17.0068 95.3535 15.7434Z" fill="white" stroke="white" stroke-width="0.125"/>
<path d="M45.372 16.3375C45.8595 16.0267 46.5566 16.0467 46.9837 16.4567C47.247 16.6984 47.3844 17.0592 47.3795 17.4159C47.3819 25.9442 47.377 34.4725 47.3811 43.0009C47.3637 43.7667 47.7404 44.5542 48.4283 44.9184C49.0856 45.2492 49.8563 45.2275 50.5658 45.1242C51.7157 44.8559 52.8978 44.385 53.6677 43.4425C54.2339 42.7575 54.623 41.8975 54.6396 40.9967C54.6437 38.9659 54.6363 36.935 54.6429 34.9042C54.652 34.2275 55.1719 33.6084 55.825 33.465C56.753 33.2542 57.6785 33.03 58.6082 32.8309C59.3201 32.6767 60.0702 33.2634 60.0776 34C60.0875 35.9734 60.0801 37.9459 60.0809 39.9184C60.076 40.395 60.1265 40.8909 60.3616 41.3134C60.7308 41.98 61.4858 42.4242 62.249 42.3759C63.177 42.3434 64.0115 41.8075 64.6141 41.1259C65.288 40.39 65.7715 39.4334 65.7731 38.4159C65.7772 36.4159 65.7739 34.4159 65.7748 32.4167C65.7632 31.8892 66.0537 31.3784 66.4958 31.1025C66.7541 30.9292 67.0678 30.8842 67.3642 30.8142C68.168 30.6367 68.9669 30.4334 69.774 30.27C70.4678 30.1409 71.188 30.7025 71.2112 31.4167C71.2277 33.3317 71.2128 35.2475 71.2186 37.1634C71.2186 37.67 71.1714 38.2117 71.4272 38.6725C71.7261 39.215 72.2534 39.6459 72.8594 39.7825C73.645 39.935 74.4571 39.6484 75.0887 39.1817C76.1376 38.3759 76.9207 37.1125 76.8901 35.7525C76.8909 33.0567 76.8876 30.3617 76.8918 27.6667C76.8909 27.1275 77.2113 26.6175 77.6724 26.3534C78.4324 25.8967 79.1931 25.4409 79.9531 24.9842C80.2668 24.7984 80.5781 24.5667 80.9539 24.5342C81.4672 24.4625 82.0144 24.7375 82.2379 25.2142C82.4167 25.56 82.3637 25.9609 82.3712 26.3367C82.3728 29.2809 82.3679 32.2259 82.3737 35.17C82.3737 36.5809 81.9705 37.9692 81.3331 39.2175C80.2966 41.1984 78.7974 42.9959 76.8363 44.0967C75.7162 44.7334 74.4563 45.0884 73.1864 45.2542C72.2186 45.3675 71.2227 45.295 70.2972 44.9809C69.7376 44.795 69.2219 44.5017 68.6945 44.2434C67.7682 45.0692 66.8385 45.9109 65.7524 46.5217C63.985 47.5467 61.8641 48.0417 59.8425 47.6425C59.0089 47.485 58.2224 47.1517 57.4451 46.8209C57.056 47.1817 56.6694 47.545 56.2737 47.8984C55.0866 48.935 53.6412 49.6325 52.147 50.0925C51.6055 50.2517 51.0625 50.42 50.4971 50.4609C49.0475 50.7017 47.5218 50.7084 46.122 50.2134C44.1625 49.5242 42.6235 47.775 42.1451 45.7459C41.8512 44.6317 41.9265 43.4709 41.9174 42.3309C41.9182 34.69 41.9166 27.0492 41.9182 19.4084C41.9075 18.88 42.2013 18.3692 42.6451 18.0925C43.554 17.5084 44.4605 16.9184 45.372 16.3375Z" fill="#231F20" stroke="#231F20" stroke-width="0.125"/>
<path d="M19.9032 18.0642C20.7128 17.8858 21.6069 17.9958 22.3039 18.4633C22.9554 18.8975 23.371 19.635 23.4885 20.4042C23.77 22.285 22.4976 24.1758 20.7517 24.805C19.8643 25.1408 18.8204 25.1284 17.9859 24.6492C17.317 24.2667 16.8609 23.5708 16.6937 22.8233C16.25 20.7075 17.8468 18.5092 19.9032 18.0642Z" fill="#231F20" stroke="#231F20" stroke-width="0.125"/>
<path d="M3.53071 18.7209C3.99678 18.4634 4.62014 18.4934 5.02744 18.85C5.33374 19.1059 5.47695 19.5142 5.46122 19.9084C5.45874 26.3825 5.46205 32.8575 5.45957 39.3317C5.45626 39.7609 5.51255 40.2025 5.71537 40.5859C5.99518 41.1275 6.53492 41.5167 7.13428 41.61C8.06725 41.7642 9.02339 41.5984 9.92077 41.33C10.6981 41.155 11.4738 40.9734 12.2519 40.7975C11.7975 39.6784 11.6882 38.45 11.7288 37.2509C11.8306 35.36 12.6601 33.5917 13.7065 32.0492C14.6071 30.7084 15.7355 29.5009 17.1089 28.6442C18.7587 27.615 20.7373 27.0784 22.6785 27.2517C25.162 27.4725 27.4651 29.2309 28.2647 31.6209C28.8608 33.4067 28.7432 35.3834 28.1356 37.15C28.5785 37.0484 29.0214 36.9467 29.4651 36.845C30.3981 36.62 31.3666 36.4767 32.2276 36.0242C33.3559 35.4917 34.2723 34.4892 34.6267 33.2784C34.8171 32.6467 34.7508 31.9817 34.7624 31.3325C34.7624 29.1375 34.7616 26.9417 34.7624 24.7459C34.7417 24.1834 35.0629 23.6417 35.5464 23.3667C36.4454 22.8284 37.3428 22.2859 38.2435 21.7484C38.6698 21.4867 39.2435 21.4584 39.6707 21.735C40.0382 21.9642 40.2518 22.3975 40.2419 22.8292C40.2427 25.7467 40.2452 28.665 40.241 31.5825C40.217 34.1767 38.9993 36.6392 37.2451 38.4934C35.4512 40.3742 32.9884 41.535 30.4502 41.9525C23.6661 43.5109 16.8837 45.0742 10.0971 46.62C8.32636 47.07 6.43476 47.3234 4.64498 46.8309C3.23269 46.4584 1.99508 45.5309 1.16394 44.3309C0.417229 43.2642 0.0678824 41.9625 0 40.67V21.4467C0.0612597 20.9409 0.371698 20.4792 0.819556 20.2417C1.72355 19.735 2.62506 19.2234 3.53071 18.7209ZM20.4053 32.7275C19.7621 32.8684 19.1635 33.1917 18.6793 33.6375C17.94 34.325 17.3464 35.23 17.214 36.2509C17.1378 36.8592 17.1726 37.5192 17.4971 38.055C17.9061 38.7109 18.6842 39.1225 19.4558 39.06C20.5667 38.9959 21.5808 38.3584 22.253 37.485C22.9865 36.6017 23.3532 35.3842 23.0924 34.2475C22.9409 33.565 22.4062 33.005 21.7613 32.7675C21.3267 32.6084 20.8498 32.6284 20.4053 32.7275Z" fill="#231F20" stroke="#231F20" stroke-width="0.125"/>
<path d="M71.1478 19.8909C71.9624 19.7334 72.8548 19.8976 73.5196 20.4109C74.1363 20.8834 74.5014 21.6401 74.5684 22.4109C74.7166 24.1993 73.4947 25.9584 71.8208 26.5293C70.9889 26.8234 70.0253 26.8068 69.2421 26.3768C68.4193 25.9251 67.9035 25.0093 67.8464 24.0784C67.7471 22.1301 69.2637 20.2709 71.1478 19.8909Z" fill="#231F20" stroke="#231F20" stroke-width="0.125"/>
<path d="M63.7016 21.6451C64.4765 21.4943 65.3233 21.6243 65.9798 22.0801C66.6785 22.566 67.0792 23.4076 67.1297 24.2493C67.2249 25.971 66.0767 27.6451 64.4823 28.2435C63.6238 28.5793 62.6105 28.5785 61.7926 28.1276C61.0252 27.7051 60.5418 26.8668 60.4375 26.006C60.209 23.9976 61.757 22.0285 63.7016 21.6451Z" fill="#231F20" stroke="#231F20" stroke-width="0.125"/>
<path d="M56.0887 23.3116C56.8942 23.1141 57.7849 23.2458 58.4787 23.7116C59.1509 24.1625 59.5755 24.9375 59.6592 25.74C59.8355 27.5108 58.6409 29.2583 57.0101 29.8791C56.1632 30.2108 55.1673 30.2158 54.3536 29.7858C53.5713 29.3725 53.0729 28.53 52.9628 27.6608C52.7343 25.6966 54.212 23.7708 56.0887 23.3116Z" fill="#231F20" stroke="#231F20" stroke-width="0.125"/>
<path d="M37.0165 42.2726C37.8261 42.1693 38.6928 42.3851 39.3104 42.9343C39.9156 43.4676 40.2334 44.2809 40.2417 45.0818C40.2533 46.8093 39.0397 48.4451 37.4097 48.9676C36.5951 49.2376 35.6621 49.2093 34.9014 48.7909C34.0785 48.3393 33.5628 47.4234 33.5056 46.4934C33.4022 44.4743 35.0363 42.5434 37.0165 42.2726Z" fill="#231F20" stroke="#231F20" stroke-width="0.125"/>
<path d="M29.6507 44.0158C30.4347 43.9349 31.2716 44.1408 31.8685 44.6758C32.4926 45.2333 32.8105 46.0874 32.7973 46.9191C32.7642 48.6733 31.486 50.3083 29.8055 50.7683C29.0124 50.9908 28.12 50.9316 27.3998 50.5116C26.5629 50.0208 26.0836 49.0424 26.0736 48.0833C26.0446 46.0891 27.6862 44.2374 29.6507 44.0158Z" fill="#231F20" stroke="#231F20" stroke-width="0.125"/>
<path d="M21.7274 45.7309C22.5387 45.5259 23.4386 45.6559 24.1389 46.1259C24.7954 46.5676 25.2168 47.3176 25.3128 48.1001C25.5189 49.8784 24.3301 51.6484 22.696 52.2842C21.8384 52.6276 20.8251 52.6342 20.0006 52.1934C19.229 51.7801 18.7381 50.9484 18.6239 50.0901C18.3863 48.1276 19.8565 46.2017 21.7274 45.7309Z" fill="#231F20" stroke="#231F20" stroke-width="0.125"/>
</g>
<defs>
<clipPath id="clip0_361_562">
<rect width="138" height="56" fill="white"/>
</clipPath>
</defs>
</svg>
