<svg width="144" height="72" viewBox="0 0 144 72" fill="none" xmlns="http://www.w3.org/2000/svg">
<path d="M64.2268 27.9001L64.2429 27.9583C64.2682 28.0526 64.3092 28.2132 64.3659 28.4401C64.4368 28.7237 64.5159 29.0701 64.6032 29.4792C64.6905 29.8882 64.7805 30.3437 64.8732 30.8455C64.9659 31.3473 65.0532 31.8519 65.135 32.3592C65.2168 32.8664 65.2823 33.3601 65.3314 33.8401C65.3805 34.3201 65.405 34.7401 65.405 35.1001C65.405 36.2237 65.2195 37.1973 64.8486 38.021C64.4777 38.8446 63.9923 39.5237 63.3923 40.0582C62.7923 40.5928 62.1186 40.991 61.3714 41.2528C60.6241 41.5146 59.8741 41.6455 59.1214 41.6455H52.0686L51.6623 41.6364C51.375 41.6243 51.0986 41.6001 50.8332 41.5637C50.435 41.5092 50.045 41.3564 49.6632 41.1055C49.5323 42.5128 49.2105 43.7892 48.6977 44.9346C48.185 46.0801 47.5005 47.0592 46.6441 47.8719C45.7877 48.6846 44.765 49.3146 43.5759 49.7619C42.3868 50.2092 41.0505 50.4328 39.5668 50.4328H37.5214V46.3582H39.5668L40.0786 46.3492C40.912 46.3189 41.6468 46.2128 42.2832 46.031C43.0468 45.8128 43.6741 45.4637 44.165 44.9837C44.6559 44.5037 45.0214 43.8792 45.2614 43.1101C45.5014 42.341 45.6214 41.4055 45.6214 40.3037V30.3382H49.6959V35.231L49.7087 35.5203C49.7427 35.8903 49.8448 36.1975 50.015 36.4419C50.2277 36.7473 50.4732 36.9846 50.7514 37.1537C51.0295 37.3228 51.2995 37.4346 51.5614 37.4892C51.8232 37.5437 52.0032 37.571 52.1014 37.571H59.2359L59.3448 37.5674C59.4645 37.5602 59.6164 37.5423 59.8004 37.5137C60.0459 37.4755 60.2914 37.3746 60.5368 37.211C60.7823 37.0473 60.9977 36.7992 61.1832 36.4664C61.3686 36.1337 61.4614 35.6782 61.4614 35.1001C61.4614 34.8601 61.4423 34.5682 61.4041 34.2246C61.3659 33.881 61.3141 33.5128 61.2486 33.1201C61.1832 32.7273 61.1095 32.3264 61.0277 31.9173C60.9459 31.5082 60.8668 31.121 60.7905 30.7555C60.7141 30.3901 60.6377 30.0573 60.5614 29.7573C60.485 29.4573 60.425 29.2255 60.3814 29.0619L64.2268 27.9001ZM23.5141 44.1328L26.525 47.1437L23.5468 50.1219L20.5686 47.111L23.5141 44.1328ZM38.6505 29.3237L38.6668 29.4014L38.6832 29.471C38.7705 29.8855 38.8605 30.3437 38.9532 30.8455C39.0459 31.3473 39.1332 31.8519 39.215 32.3592C39.2968 32.8664 39.3623 33.3601 39.4114 33.8401C39.4605 34.3201 39.485 34.7401 39.485 35.1001C39.485 36.2237 39.2995 37.1973 38.9286 38.021C38.5577 38.8446 38.0723 39.5237 37.4723 40.0582C36.8723 40.5928 36.1986 40.991 35.4514 41.2528C34.7041 41.5146 33.9541 41.6455 33.2014 41.6455H13.7777L13.2986 41.6292C12.6667 41.5855 12.0628 41.4546 11.4868 41.2364C10.7668 40.9637 10.1286 40.5655 9.57227 40.0419C9.35409 39.8346 9.12773 39.5837 8.89318 39.2892C8.65864 38.9946 8.44864 38.6455 8.26318 38.2419C8.07773 37.8382 7.925 37.3828 7.805 36.8755C7.685 36.3682 7.625 35.7983 7.625 35.1655C7.625 34.6201 7.67955 34.0282 7.78864 33.3901C7.89773 32.7519 8.02045 32.1492 8.15682 31.5819C8.29318 31.0146 8.42136 30.5237 8.54136 30.1092C8.66136 29.6946 8.73773 29.4382 8.77045 29.3401L10.7177 29.9619L12.6486 30.5673L12.574 30.799C12.4983 31.0414 12.4195 31.316 12.3377 31.6228C12.2286 32.0319 12.125 32.4519 12.0268 32.8828C11.9286 33.3137 11.8468 33.731 11.7814 34.1346C11.7159 34.5382 11.6832 34.8873 11.6832 35.1819C11.6832 35.7055 11.7568 36.1283 11.9041 36.4501C12.0514 36.7719 12.2314 37.0173 12.4441 37.1864C12.6568 37.3555 12.8668 37.4619 13.0741 37.5055C13.2814 37.5492 13.5268 37.571 13.8105 37.571H33.3159L33.4248 37.5674C33.5445 37.5602 33.6964 37.5423 33.8805 37.5137C34.1259 37.4755 34.3714 37.3746 34.6168 37.211C34.8623 37.0473 35.0777 36.7992 35.2632 36.4664C35.4486 36.1337 35.5414 35.6782 35.5414 35.1001C35.5414 34.8601 35.5223 34.5682 35.4841 34.2246C35.4459 33.881 35.3941 33.5128 35.3286 33.1201C35.2632 32.7273 35.1895 32.3264 35.1077 31.9173C35.0259 31.5082 34.9468 31.1182 34.8705 30.7473C34.8377 30.6055 34.8105 30.4692 34.7886 30.3382L38.6505 29.3237ZM55.7832 19.1292L58.5977 21.9437L55.8323 24.7255L53.0832 21.9437L55.7832 19.1292ZM62.6559 19.1128L65.4705 21.9273L62.6886 24.7092L59.9395 21.9273L62.6559 19.1128Z" fill="#D73948"/>
<path d="M131.58 20.3504L131.18 20.8204C129.601 22.539 127.469 23.5378 125.14 23.6112C125.039 23.6259 124.922 23.6259 124.82 23.6259C124.529 23.6259 124.26 23.6112 123.983 23.5819C129.47 30.1183 130.299 39.7392 125.402 47.2524C120.527 54.7215 111.504 57.7694 103.428 55.3311H103.377C100.102 54.4645 96.3912 55.7718 94.4265 58.8343C96.4639 55.6983 96.1729 51.681 93.9172 48.9196V48.8902C88.5981 42.3685 87.8705 32.8944 92.7238 25.4914C98.0357 17.3392 108.295 14.4603 116.867 18.2206C116.503 17.2658 116.27 16.2376 116.212 15.1874C116.139 13.2779 116.685 11.4418 117.726 9.89951C106.229 6.08049 93.1313 10.2667 86.1459 20.9893C77.7416 33.8418 81.2707 51.1008 93.9317 59.5467C106.622 68 123.671 64.4013 132.039 51.6223C138.442 41.803 137.896 29.4059 131.587 20.3357L131.58 20.3504Z" fill="#E91E33"/>
<path d="M101.405 13.814C94.4411 14.5117 88.3434 17.5155 86.0514 21.0555C77.6834 33.8712 81.1907 51.1082 93.8881 59.5541L94.3538 58.8344C96.3912 55.6984 96.1001 51.6811 93.8444 48.9196V48.8902C88.5981 42.3685 87.8705 32.8944 92.6729 25.4914C97.9847 17.3393 108.245 14.4603 116.816 18.2206C116.816 18.2206 109.54 13.0062 101.419 13.814H101.405Z" fill="#BF0F22"/>
<path d="M120.921 21.6429C120.921 21.6429 120.702 18.9989 121.866 17.0894C123.031 15.1799 125.505 13.3071 128.634 13.5054C131.777 13.7037 132.286 14.4382 132.286 14.4382C132.286 14.4382 132.359 17.0087 131.486 18.4775C130.613 19.9464 128.794 22.1056 126.174 22.649C123.555 23.1852 120.921 21.6429 120.921 21.6429Z" fill="#6FBC23"/>
<path d="M119.974 20.9012C119.974 20.9012 119.683 18.3307 121.429 15.7602C123.175 13.1897 125.067 12.8078 125.067 12.8078C125.067 12.8078 124.849 9.28259 123.175 7.59341C123.321 7.55669 121.182 7.64482 119.319 9.72325C117.674 11.5446 116.699 14.4236 117.427 17.2144C118.155 20.0052 119.974 20.9012 119.974 20.9012Z" fill="#519A23"/>
</svg>
