<svg width="57" height="48" viewBox="0 0 57 48" fill="none" xmlns="http://www.w3.org/2000/svg">
<path d="M45.4552 34.2816C43.6248 38.1619 40.7921 41.4775 37.2525 43.8826C33.7129 46.2878 29.596 47.6943 25.3313 47.9555C21.0666 48.2168 16.8103 47.3232 13.0063 45.3679C9.20222 43.4126 5.98984 40.4673 3.70416 36.8391C1.41847 33.2109 0.143206 29.0328 0.0113722 24.7405C-0.120462 20.4482 0.895964 16.199 2.95464 12.4361C5.01331 8.67311 8.03882 5.53424 11.7156 3.34684C15.3924 1.15945 19.5858 0.00365084 23.8584 2.76256e-06C27.06 -0.00154547 30.2289 0.647681 33.1745 1.90865C36.1201 3.16961 38.7815 5.01627 40.9988 7.33758H54.8345C55.0598 7.33765 55.2813 7.39626 55.4775 7.50771C55.6737 7.61917 55.8379 7.77969 55.9542 7.9737C56.0705 8.16772 56.1349 8.38864 56.1412 8.61506C56.1476 8.84147 56.0956 9.06568 55.9903 9.26594C54.8345 11.4673 52.8977 15.1655 51.2623 18.2871C50.4197 19.8965 49.1721 21.2557 47.6438 22.2293C47.6889 22.835 47.7115 23.4466 47.7115 24.0639C47.7134 26.3201 47.4005 28.5655 46.7819 30.7343H48.6576C49.1257 30.7343 49.5747 30.9212 49.9057 31.2539C50.2367 31.5866 50.4226 32.0379 50.4226 32.5084C50.4226 32.9789 50.2367 33.4301 49.9057 33.7628C49.5747 34.0955 49.1257 34.2824 48.6576 34.2824L45.4552 34.2816Z" fill="white"/>
<path d="M15.7399 44.6309H13.8147C13.6458 44.6293 13.4844 44.5605 13.366 44.4395C13.2476 44.3184 13.1818 44.1551 13.1831 43.9853V43.972C13.1823 43.8024 13.2481 43.6392 13.3664 43.5181C13.4848 43.397 13.6459 43.3279 13.8147 43.3257H15.7399C15.9082 43.3285 16.0687 43.398 16.1863 43.519C16.3039 43.6401 16.3693 43.8029 16.3682 43.972V43.9853C16.3699 44.1546 16.3048 44.3177 16.187 44.4388C16.0692 44.5598 15.9084 44.6289 15.7399 44.6309ZM33.9849 42.9307H18.906C18.7374 42.9285 18.5767 42.8592 18.4589 42.7381C18.3411 42.6169 18.276 42.4537 18.2777 42.2843V42.2669C18.276 42.0976 18.3411 41.9345 18.4589 41.8134C18.5767 41.6924 18.7375 41.6233 18.906 41.6213H33.9849C34.1536 41.6231 34.3147 41.6921 34.4328 41.8131C34.5509 41.9341 34.6164 42.0974 34.6148 42.2669V42.2802C34.6162 42.3645 34.6009 42.4483 34.5699 42.5266C34.5389 42.605 34.4929 42.6765 34.4343 42.7369C34.3758 42.7974 34.306 42.8456 34.2289 42.8789C34.1517 42.9121 34.0689 42.9297 33.9849 42.9307ZM17.2796 39.5436H5.55821L4.75992 39.5395L3.10878 36.9332H17.2796C18.7493 36.9315 20.1888 36.514 21.4334 35.7285C22.6781 34.943 23.6776 33.8212 24.3176 32.4915L25.2942 30.5067H13.3458C13.0084 30.5028 12.6864 30.3646 12.4502 30.1224C12.2141 29.8802 12.0831 29.5538 12.086 29.2148V29.189C12.0831 28.85 12.2141 28.5236 12.4502 28.2814C12.6864 28.0392 13.0084 27.901 13.3458 27.8971H28.7385C30.2082 27.8956 31.6478 27.4782 32.8925 26.6927C34.1371 25.9072 35.1366 24.7852 35.7764 23.4554L36.7531 21.4706H17.8038C17.4665 21.4667 17.1445 21.3285 16.9083 21.0863C16.6722 20.8441 16.5412 20.5177 16.544 20.1787V20.1521C16.5409 19.8129 16.6718 19.4863 16.908 19.2439C17.1442 19.0016 17.4663 18.8633 17.8038 18.8593H40.199C41.6687 18.8577 43.1082 18.4402 44.3528 17.6547C45.5975 16.8692 46.597 15.7474 47.2369 14.4176L48.2136 12.4345H2.2832L3.93435 9.82324H50.4401C50.6416 9.82439 50.8393 9.87758 51.0144 9.9777C51.1895 10.0778 51.336 10.2215 51.4399 10.3949C51.5458 10.5701 51.6057 10.7694 51.614 10.9742C51.6222 11.179 51.5785 11.3826 51.4869 11.5657L49.5056 15.5909C48.659 17.3503 47.3366 18.8347 45.6899 19.874C44.0431 20.9134 42.1385 21.4658 40.194 21.4681H39.5996L38.0451 24.6287C37.1983 26.3878 35.8759 27.8719 34.2291 28.911C32.5824 29.95 30.6779 30.5022 28.7335 30.5042H28.1408L26.5936 33.6498H36.3205C36.4894 33.6516 36.6508 33.7206 36.7692 33.8418C36.8876 33.963 36.9534 34.1264 36.952 34.2962V34.3095C36.9533 34.4792 36.8876 34.6426 36.7692 34.7636C36.6507 34.8847 36.4894 34.9535 36.3205 34.955H25.8407C24.8939 36.3633 23.6189 37.5175 22.1268 38.3172C20.6346 39.117 18.9706 39.538 17.2796 39.5436ZM31.6527 37.5978H27.1831C27.0144 37.5959 26.8533 37.5267 26.7352 37.4055C26.6171 37.2844 26.5517 37.1211 26.5532 36.9514V36.9398C26.5517 36.7702 26.6171 36.6069 26.7352 36.4857C26.8533 36.3646 27.0144 36.2954 27.1831 36.2934H31.6527C31.8215 36.2954 31.9825 36.3646 32.1006 36.4857C32.2187 36.6069 32.2842 36.7702 32.2826 36.9398V36.9514C32.2842 37.1211 32.2187 37.2844 32.1006 37.4055C31.9825 37.5267 31.8215 37.5959 31.6527 37.5978ZM47.9915 33.0723H32.9117C32.743 33.0703 32.5819 33.0012 32.4638 32.88C32.3457 32.7588 32.2803 32.5955 32.2818 32.4259V32.4143C32.2803 32.2447 32.3457 32.0814 32.4638 31.9602C32.5819 31.8391 32.743 31.7699 32.9117 31.7679H47.9915C48.1605 31.7697 48.3218 31.8387 48.4402 31.9599C48.5586 32.0811 48.6244 32.2445 48.6231 32.4143V32.4259C48.6244 32.5958 48.5586 32.7592 48.4402 32.8804C48.3218 33.0015 48.1605 33.0706 47.9915 33.0723Z" fill="#0099FF"/>
</svg>
