<svg width="168" height="36" viewBox="0 0 168 36" fill="none" xmlns="http://www.w3.org/2000/svg">
<path d="M79.6662 35.9997C79.0362 36.0082 78.4179 35.8291 77.89 35.4852C77.3621 35.1414 76.9483 34.6483 76.7014 34.0687C76.4544 33.4891 76.3854 32.8491 76.5031 32.2302C76.6208 31.6112 76.9199 31.0413 77.3624 30.5928C77.8049 30.1443 78.3708 29.8375 78.9881 29.7115C79.6054 29.5854 80.2462 29.6458 80.8291 29.8849C81.412 30.124 81.9106 30.5311 82.2616 31.0543C82.6125 31.5775 82.7999 32.1933 82.8 32.8233C82.8048 33.6599 82.4775 34.4641 81.89 35.0596C81.3025 35.6551 80.5027 35.9932 79.6662 35.9997ZM73.3998 35.9997C72.7698 36.0083 72.1515 35.8293 71.6235 35.4855C71.0955 35.1417 70.6816 34.6487 70.4346 34.0691C70.1875 33.4895 70.1184 32.8495 70.236 32.2306C70.3537 31.6116 70.6527 31.0416 71.0952 30.593C71.5377 30.1445 72.1035 29.8376 72.7208 29.7115C73.3382 29.5854 73.979 29.6458 74.562 29.8848C75.1449 30.1239 75.6435 30.531 75.9945 31.0542C76.3455 31.5775 76.5329 32.1933 76.533 32.8233C76.5376 33.6597 76.2104 34.4638 75.623 35.0592C75.0357 35.6547 74.2361 35.9929 73.3998 35.9997ZM67.1328 35.9997C66.5028 36.0083 65.8845 35.8293 65.3565 35.4855C64.8285 35.1417 64.4146 34.6487 64.1676 34.0691C63.9205 33.4895 63.8514 32.8495 63.9691 32.2306C64.0867 31.6116 64.3858 31.0416 64.8282 30.593C65.2707 30.1445 65.8365 29.8376 66.4538 29.7115C67.0712 29.5854 67.712 29.6458 68.295 29.8848C68.8779 30.1239 69.3765 30.531 69.7275 31.0542C70.0785 31.5775 70.2659 32.1933 70.266 32.8233C70.2708 33.6598 69.9436 34.4639 69.3562 35.0594C68.7688 35.6549 67.9692 35.993 67.1328 35.9997ZM60.8664 35.9997C60.2364 36.0083 59.6181 35.8293 59.0901 35.4855C58.5621 35.1417 58.1482 34.6487 57.9012 34.0691C57.6541 33.4895 57.585 32.8495 57.7027 32.2306C57.8203 31.6116 58.1194 31.0416 58.5618 30.593C59.0043 30.1445 59.5701 29.8376 60.1874 29.7115C60.8048 29.5854 61.4456 29.6458 62.0286 29.8848C62.6115 30.1239 63.1101 30.531 63.4611 31.0542C63.8121 31.5775 63.9995 32.1933 63.9996 32.8233C64.0042 33.6597 63.677 34.4638 63.0896 35.0592C62.5023 35.6547 61.7028 35.9929 60.8664 35.9997ZM54.6 35.9997C53.97 36.0083 53.3517 35.8293 52.8237 35.4855C52.2957 35.1417 51.8818 34.6487 51.6348 34.0691C51.3877 33.4895 51.3186 32.8495 51.4363 32.2306C51.5539 31.6116 51.853 31.0416 52.2954 30.593C52.7379 30.1445 53.3037 29.8376 53.9211 29.7115C54.5384 29.5854 55.1792 29.6458 55.7622 29.8848C56.3451 30.1239 56.8438 30.531 57.1947 31.0542C57.5457 31.5775 57.7331 32.1933 57.7332 32.8233C57.738 33.6598 57.4108 34.4639 56.8234 35.0594C56.236 35.6549 55.4364 35.993 54.6 35.9997ZM75.2052 26.6398H3.80402C3.30302 26.6406 2.80691 26.5413 2.34488 26.3476C1.88284 26.1539 1.46421 25.8697 1.11363 25.5118C0.396642 24.7857 -0.00372812 23.8053 2.61665e-05 22.7848C0.00168508 21.7658 0.401273 20.7877 1.11363 20.059C1.46396 19.7007 1.8825 19.4161 2.34457 19.2221C2.80663 19.028 3.30287 18.9285 3.80402 18.9292H40.7454L36.6522 11.7395C36.0608 10.6999 35.9008 9.46978 36.2065 8.31346C36.5122 7.15714 37.2593 6.16686 38.2872 5.55536C40.5294 4.24377 43.362 2.58598 45.699 1.21799L46.899 0.514196C47.4716 0.178188 48.1233 0.000708779 48.7872 0C49.4536 0.0025449 50.1075 0.181051 50.6828 0.517459C51.258 0.853867 51.7342 1.33624 52.0632 1.91578L52.074 1.93498L52.0848 1.95478C52.5839 2.83758 52.7195 3.88007 52.4628 4.86116C52.2033 5.83788 51.5702 6.67339 50.7 7.18734C48.9498 8.21093 46.92 9.39892 45.756 10.0811L45.27 10.3661C45.1448 10.4405 45.0538 10.5612 45.0167 10.702C44.9796 10.8428 44.9992 10.9926 45.0714 11.1191L49.5198 18.9298C49.5372 18.9298 59.7798 18.9298 63.8544 18.9298C64.0827 18.9303 64.3088 18.885 64.5193 18.7967C64.7298 18.7084 64.9205 18.5788 65.0802 18.4157C65.4062 18.0851 65.5882 17.6391 65.5866 17.1749V14.5949C65.5768 13.9937 65.7473 13.4033 66.0761 12.8999C66.4048 12.3965 66.8769 12.003 67.4313 11.7703C67.9857 11.5376 68.5971 11.4762 69.1867 11.5941C69.7763 11.712 70.3171 12.0038 70.7394 12.4319C71.3049 13.01 71.6222 13.7862 71.6238 14.5949V17.1749C71.6212 17.637 71.8019 18.0812 72.1262 18.4104C72.4506 18.7395 72.8921 18.9268 73.3542 18.931H75.027C75.2552 18.9315 75.4811 18.8863 75.6916 18.7982C75.9021 18.7101 76.0929 18.5809 76.2528 18.4181C76.5774 18.0861 76.7596 17.6404 76.7604 17.1761V14.5985C76.7506 13.9973 76.9211 13.4069 77.2499 12.9035C77.5786 12.4001 78.0507 12.0066 78.6051 11.7739C79.1595 11.5412 79.7709 11.4798 80.3605 11.5977C80.9501 11.7156 81.4909 12.0074 81.9132 12.4355C82.4796 13.0132 82.7978 13.7894 82.8 14.5985V19.4488H82.7826C82.6634 21.3063 81.8794 23.0588 80.574 24.3856C79.8748 25.1008 79.0395 25.6687 78.1173 26.0559C77.1951 26.4431 76.2048 26.6416 75.2046 26.6398H75.2052Z" fill="#0099FF"/>
<path d="M91.272 35.9997C90.5993 35.9989 89.9387 35.8207 89.3568 35.4831C88.4745 34.9696 87.8311 34.1279 87.567 33.1418C87.303 32.1556 87.4397 31.105 87.9474 30.2194L90.3678 26.0128C89.1223 25.5395 87.9944 24.8012 87.0624 23.8489C86.1303 22.8966 85.4164 21.7532 84.9699 20.4977C84.5235 19.2423 84.3553 17.9048 84.4768 16.5779C84.5984 15.251 85.0069 13.9663 85.674 12.8129C86.2729 11.7684 87.0723 10.8524 88.0262 10.1177C88.9801 9.38298 90.0697 8.84395 91.2326 8.53157C92.3954 8.2192 93.6085 8.13962 94.8021 8.29743C95.9958 8.45523 97.1465 8.8473 98.1882 9.45112C99.5778 10.2625 100.731 11.4226 101.535 12.8168C102.338 14.2109 102.764 15.7908 102.769 17.3999V3.85557C102.769 2.83675 103.174 1.85966 103.894 1.13924C104.615 0.418825 105.592 0.0140999 106.611 0.0140999C107.63 0.0140999 108.607 0.418825 109.327 1.13924C110.048 1.85966 110.452 2.83675 110.452 3.85557V18.9256C110.454 20.96 109.649 22.9119 108.213 24.353C106.777 25.7941 104.828 26.6066 102.793 26.6122H98.8932L94.6002 34.0725C94.263 34.6572 93.778 35.143 93.1939 35.4812C92.6098 35.8194 91.947 35.9982 91.272 35.9997ZM93.612 14.2331C92.8401 14.2306 92.0936 14.509 91.5119 15.0164C90.9301 15.5237 90.5527 16.2253 90.4501 16.9904C90.3475 17.7555 90.5267 18.5318 90.9543 19.1745C91.3819 19.8172 92.0286 20.2824 92.774 20.4833C93.5193 20.6843 94.3122 20.6073 95.005 20.2667C95.6977 19.9262 96.2429 19.3452 96.5389 18.6323C96.8348 17.9193 96.8614 17.1231 96.6135 16.392C96.3657 15.661 95.8604 15.045 95.1918 14.6591C94.7111 14.3815 94.166 14.2346 93.6108 14.2331H93.612ZM117.817 26.611H117.793C117.289 26.6122 116.791 26.5132 116.326 26.32C115.861 26.1268 115.439 25.8431 115.085 25.4854C114.369 24.762 113.966 23.7859 113.964 22.768V3.84357C113.963 3.3399 114.061 2.84094 114.253 2.37518C114.444 1.90942 114.726 1.48598 115.081 1.12906C115.437 0.772132 115.859 0.488713 116.324 0.294987C116.789 0.10126 117.287 0.00102312 117.791 0L117.815 0C118.32 0.000235273 118.819 0.0998914 119.284 0.293265C119.75 0.486639 120.173 0.769933 120.529 1.12694C120.885 1.48394 121.167 1.90764 121.359 2.37379C121.551 2.83995 121.649 3.3394 121.648 3.84357V22.7686C121.649 23.2722 121.55 23.771 121.358 24.2366C121.166 24.7021 120.884 25.1253 120.529 25.4819C120.173 25.8384 119.751 26.1215 119.286 26.3148C118.821 26.5081 118.322 26.608 117.818 26.6086L117.817 26.611Z" fill="#0099FF"/>
<path d="M159.61 24.7888C158.28 27.5946 156.221 29.9921 153.648 31.7313C151.076 33.4704 148.084 34.4875 144.984 34.6764C141.885 34.8653 138.791 34.2191 136.027 32.8052C133.262 31.3914 130.927 29.2616 129.266 26.6381C127.605 24.0146 126.678 20.9935 126.582 17.8897C126.487 14.786 127.225 11.7134 128.722 8.99245C130.218 6.27147 132.417 4.00178 135.089 2.42008C137.761 0.838389 140.809 0.0026399 143.914 1.99759e-06C146.241 -0.00111752 148.544 0.468334 150.685 1.38013C152.825 2.29193 154.76 3.62723 156.371 5.30576H166.426C166.59 5.30581 166.751 5.34819 166.894 5.42878C167.036 5.50937 167.156 5.62544 167.24 5.76574C167.325 5.90603 167.372 6.06578 167.376 6.2295C167.381 6.39321 167.343 6.55534 167.266 6.70015C166.426 8.29193 165.019 10.9661 163.83 13.2233C163.218 14.387 162.311 15.3699 161.2 16.0739C161.233 16.5119 161.25 16.9541 161.25 17.4005C161.251 19.0319 161.024 20.6555 160.574 22.2238H161.937C162.277 22.2238 162.604 22.359 162.844 22.5995C163.085 22.8401 163.22 23.1664 163.22 23.5066C163.22 23.8468 163.085 24.1731 162.844 24.4137C162.604 24.6542 162.277 24.7894 161.937 24.7894L159.61 24.7888Z" fill="#0099FF"/>
<path d="M138.013 32.2724H136.614C136.491 32.2713 136.374 32.2215 136.288 32.134C136.202 32.0465 136.154 31.9284 136.155 31.8056V31.796C136.155 31.6733 136.202 31.5553 136.288 31.4678C136.374 31.3802 136.491 31.3302 136.614 31.3286H138.013C138.136 31.3307 138.252 31.3809 138.338 31.4684C138.423 31.5559 138.471 31.6737 138.47 31.796V31.8056C138.471 31.928 138.424 32.046 138.338 32.1335C138.253 32.221 138.136 32.271 138.013 32.2724ZM151.273 31.043H140.314C140.192 31.0414 140.075 30.9913 139.989 30.9037C139.904 30.8161 139.857 30.6981 139.858 30.5756V30.563C139.857 30.4406 139.904 30.3227 139.989 30.2351C140.075 30.1476 140.192 30.0976 140.314 30.0962H151.273C151.396 30.0975 151.513 30.1474 151.599 30.2349C151.685 30.3224 151.732 30.4404 151.731 30.563V30.5726C151.732 30.6336 151.721 30.6942 151.699 30.7508C151.676 30.8075 151.643 30.8592 151.6 30.9029C151.557 30.9466 151.507 30.9815 151.451 31.0055C151.395 31.0296 151.334 31.0423 151.273 31.043ZM139.132 28.5938H130.614L130.033 28.5908L128.833 26.7063H139.132C140.201 26.705 141.247 26.4032 142.151 25.8352C143.056 25.2672 143.782 24.456 144.247 23.4945L144.957 22.0593H136.273C136.028 22.0564 135.794 21.9565 135.623 21.7814C135.451 21.6063 135.356 21.3703 135.358 21.1251V21.1065C135.356 20.8613 135.451 20.6253 135.623 20.4502C135.794 20.2751 136.028 20.1752 136.273 20.1723H147.46C148.529 20.1712 149.575 19.8694 150.479 19.3014C151.384 18.7334 152.11 17.9221 152.575 16.9605L153.285 15.5253H139.513C139.268 15.5225 139.034 15.4226 138.863 15.2475C138.691 15.0723 138.596 14.8363 138.598 14.5911V14.5719C138.596 14.3267 138.691 14.0905 138.862 13.9153C139.034 13.74 139.268 13.64 139.513 13.6372H155.79C156.858 13.6359 157.904 13.3341 158.808 12.7661C159.713 12.1981 160.439 11.3869 160.905 10.4254L161.614 8.9914H128.233L129.433 7.10321H163.233C163.379 7.10404 163.523 7.1425 163.65 7.2149C163.777 7.28729 163.884 7.39119 163.959 7.51661C164.036 7.64325 164.08 7.78739 164.086 7.93548C164.092 8.08358 164.06 8.23076 163.993 8.3632L162.553 11.2738C161.938 12.546 160.977 13.6193 159.78 14.3709C158.583 15.1224 157.199 15.5219 155.786 15.5235H155.354L154.224 17.8089C153.609 19.081 152.648 20.1541 151.451 20.9054C150.254 21.6568 148.87 22.056 147.457 22.0575H147.026L145.902 24.3321H152.971C153.094 24.3333 153.211 24.3833 153.297 24.4709C153.383 24.5585 153.431 24.6767 153.43 24.7995V24.8091C153.431 24.9318 153.383 25.0499 153.297 25.1374C153.211 25.225 153.094 25.2748 152.971 25.2759H145.354C144.666 26.2941 143.74 27.1288 142.655 27.7071C141.571 28.2853 140.361 28.5898 139.132 28.5938ZM149.578 27.1868H146.33C146.207 27.1854 146.09 27.1354 146.004 27.0478C145.919 26.9602 145.871 26.8421 145.872 26.7195V26.7111C145.871 26.5884 145.919 26.4703 146.004 26.3827C146.09 26.2951 146.207 26.2451 146.33 26.2437H149.578C149.701 26.2451 149.818 26.2951 149.904 26.3827C149.99 26.4703 150.037 26.5884 150.036 26.7111V26.7195C150.037 26.8421 149.99 26.9602 149.904 27.0478C149.818 27.1354 149.701 27.1854 149.578 27.1868ZM161.453 23.9145H150.493C150.371 23.913 150.254 23.863 150.168 23.7754C150.082 23.6878 150.034 23.5697 150.036 23.4471V23.4387C150.034 23.316 150.082 23.198 150.168 23.1103C150.254 23.0227 150.371 22.9727 150.493 22.9713H161.453C161.576 22.9726 161.693 23.0225 161.779 23.1101C161.865 23.1977 161.913 23.3159 161.912 23.4387V23.4471C161.913 23.5699 161.865 23.688 161.779 23.7757C161.693 23.8633 161.576 23.9132 161.453 23.9145Z" fill="white"/>
</svg>
