<svg width="32" height="32" viewBox="0 0 32 32" fill="none" xmlns="http://www.w3.org/2000/svg">
<g clip-path="url(#clip0_361_619)">
<path d="M8.73288 30.334C10.3674 30.3058 11.9793 29.9476 13.4719 29.281C15.1648 28.5467 16.7693 27.6235 18.2549 26.529C19.8441 25.3654 21.3443 24.0849 22.7429 22.698L22.7499 22.691C24.1332 21.2974 25.4095 19.8015 26.5679 18.216C27.6485 16.7383 28.5623 15.1456 29.2929 13.467C29.9524 11.9698 30.306 10.3558 30.3329 8.72C30.3386 7.71317 30.1515 6.71454 29.7819 5.778C29.3899 4.79877 28.7862 3.91839 28.0139 3.2C27.5677 2.72556 27.0309 2.34544 26.4352 2.08212C25.8395 1.81881 25.1971 1.67765 24.5459 1.667C24.0253 1.66579 23.5109 1.78022 23.0399 2.002C22.5221 2.23925 22.0779 2.61164 21.7539 3.08L18.6659 7.432C18.4084 7.78187 18.1929 8.1608 18.0239 8.561C17.8558 8.9391 17.766 9.34729 17.7599 9.761C17.7624 10.2745 17.9067 10.7773 18.1769 11.214C18.4253 11.6323 18.7279 12.016 19.0769 12.355L19.9949 13.309C19.9839 13.336 19.9719 13.364 19.9599 13.395C19.6395 13.9169 19.2738 14.4094 18.8669 14.867C18.2119 15.623 17.5969 16.294 16.9859 16.917C16.1709 17.717 15.5359 18.304 14.9259 18.817C14.4629 19.2272 13.9604 19.5907 13.4259 19.902L13.3479 19.937L12.4289 19.03C12.0843 18.671 11.6888 18.3647 11.2549 18.121C10.8226 17.8543 10.3248 17.7127 9.81688 17.712C9.40706 17.7151 9.00191 17.7994 8.62488 17.96C8.23199 18.1268 7.85762 18.3343 7.50788 18.579L7.49088 18.591L3.08188 21.721C2.61217 22.0354 2.23979 22.475 2.00688 22.99L1.99388 23.021C1.80853 23.4685 1.71174 23.9477 1.70888 24.432C1.71028 25.0828 1.85684 25.725 2.13788 26.312C2.4127 26.8957 2.77336 27.4351 3.20788 27.912C3.90664 28.7059 4.77696 29.3304 5.75288 29.738C6.69689 30.1322 7.70986 30.3348 8.73288 30.334ZM21.3329 21.28C20.0065 22.5951 18.5839 23.8095 17.0769 24.913C15.7137 25.9182 14.2414 26.7662 12.6879 27.441C11.4429 28.0014 10.0978 28.3051 8.73288 28.334C7.97334 28.3389 7.2204 28.1928 6.51788 27.904H6.51288C5.8123 27.6081 5.18821 27.1567 4.68788 26.584C4.38587 26.2516 4.13541 25.8757 3.94488 25.469C3.79027 25.1489 3.70897 24.7984 3.70688 24.443C3.70922 24.2193 3.75507 23.9982 3.84188 23.792C3.92695 23.619 4.05898 23.4735 4.22288 23.372L4.23288 23.367L8.63288 20.24C8.86535 20.0763 9.11398 19.9369 9.37488 19.824C9.51199 19.7627 9.65976 19.7287 9.80988 19.724C9.96223 19.7261 10.1106 19.7727 10.2369 19.858L10.2939 19.89C10.5585 20.0433 10.7994 20.2343 11.0089 20.457L12.0209 21.457C12.1842 21.6225 12.3791 21.7535 12.594 21.8423C12.8089 21.9311 13.0394 21.9759 13.2719 21.974C13.5051 21.9769 13.7369 21.9373 13.9559 21.857L13.9989 21.84L14.1419 21.776C14.1689 21.763 14.1939 21.752 14.2169 21.743L14.2659 21.723L14.3129 21.698C14.9912 21.3161 15.628 20.8647 16.2129 20.351C16.8639 19.798 17.5339 19.179 18.3879 18.341L18.4009 18.328C19.0499 17.667 19.6969 16.967 20.3829 16.175L20.3899 16.167C20.9008 15.5874 21.3546 14.9598 21.7449 14.293L21.7879 14.215L21.8159 14.13C21.8159 14.122 21.8319 14.092 21.8409 14.07C21.8599 14.024 21.8849 13.97 21.9099 13.899L21.9299 13.846L21.9439 13.791C21.9901 13.6117 22.0137 13.4272 22.0139 13.242C22.0167 13.0137 21.9739 12.7872 21.8881 12.5756C21.8022 12.3641 21.675 12.1718 21.5139 12.01L20.4929 10.947C20.2675 10.7295 20.0715 10.4834 19.9099 10.215L19.8939 10.187C19.8107 10.0597 19.7644 9.91196 19.7599 9.76C19.7686 9.61492 19.8046 9.47279 19.8659 9.341L19.8719 9.326C19.9825 9.06773 20.1231 8.82338 20.2909 8.598V8.592L23.3909 4.223C23.5137 4.04461 23.6832 3.90346 23.8809 3.815L23.8949 3.809C24.0985 3.71346 24.321 3.66493 24.5459 3.667C24.9385 3.67997 25.3245 3.77224 25.6806 3.93825C26.0367 4.10426 26.3555 4.34058 26.6179 4.633L26.6329 4.648C27.1953 5.1666 27.6355 5.80359 27.9219 6.513V6.518C28.1982 7.21902 28.3378 7.96649 28.3329 8.72C28.3061 10.0895 28.0062 11.4399 27.4509 12.692C26.7798 14.2291 25.9414 15.6875 24.9509 17.041C23.853 18.5428 22.6436 19.9598 21.3329 21.28Z" fill="#0099FF"/>
<path d="M7.333 13.001C7.59822 13.001 7.85257 12.8956 8.04011 12.7081C8.22764 12.5206 8.333 12.2662 8.333 12.001C8.51325 11.1056 8.96386 10.2871 9.624 9.65598C10.2127 8.92167 11.0656 8.44712 12 8.33398C12.2652 8.33398 12.5196 8.22863 12.7071 8.04109C12.8946 7.85355 13 7.5992 13 7.33398C13 7.06877 12.8946 6.81441 12.7071 6.62688C12.5196 6.43934 12.2652 6.33398 12 6.33398C11.2608 6.38477 10.5396 6.58459 9.87963 6.92143C9.2197 7.25827 8.63476 7.72515 8.16 8.29398C7.14283 9.28279 6.49759 10.592 6.333 12.001C6.333 12.2662 6.43836 12.5206 6.62589 12.7081C6.81343 12.8956 7.06778 13.001 7.333 13.001Z" fill="#0099FF"/>
<path d="M2.667 13C2.93222 13 3.18657 12.8947 3.37411 12.7071C3.56164 12.5196 3.667 12.2653 3.667 12C3.66965 9.7908 4.54843 7.67281 6.1106 6.11064C7.67277 4.54847 9.79076 3.66969 12 3.66704C12.2652 3.66704 12.5196 3.56168 12.7071 3.37415C12.8946 3.18661 13 2.93226 13 2.66704C13 2.40182 12.8946 2.14747 12.7071 1.95993C12.5196 1.7724 12.2652 1.66704 12 1.66704C10.6422 1.6629 9.29707 1.92814 8.04248 2.44738C6.78788 2.96662 5.64874 3.72957 4.691 4.69204C3.72853 5.64978 2.96558 6.78892 2.44634 8.04352C1.9271 9.29811 1.66187 10.6432 1.666 12.001C1.66613 12.1324 1.69213 12.2624 1.7425 12.3836C1.79288 12.5049 1.86665 12.6151 1.9596 12.7079C2.05255 12.8006 2.16286 12.8742 2.28424 12.9243C2.40562 12.9744 2.53568 13.0002 2.667 13Z" fill="#0099FF"/>
</g>
<defs>
<clipPath id="clip0_361_619">
<rect width="32" height="32" fill="white" transform="matrix(-1 0 0 1 32 0)"/>
</clipPath>
</defs>
</svg>
